<svg xmlns="http://www.w3.org/2000/svg" width="500" height="500" viewBox="0 0 500 500" role="img" aria-labelledby="title desc">
  <title id="title">CPVP Desync Fix Crystal Logo</title>
  <desc id="desc">A simple faceted blue crystal logo on a transparent background.</desc>
  <defs>
    <linearGradient id="shellLeft" x1="128" y1="190" x2="250" y2="464" gradientUnits="userSpaceOnUse">
      <stop offset="0%" stop-color="#09408d"/>
      <stop offset="100%" stop-color="#0a2b70"/>
    </linearGradient>
    <linearGradient id="shellRight" x1="372" y1="190" x2="250" y2="464" gradientUnits="userSpaceOnUse">
      <stop offset="0%" stop-color="#0a2b70"/>
      <stop offset="100%" stop-color="#09408d"/>
    </linearGradient>
    <linearGradient id="core" x1="168" y1="196" x2="336" y2="446" gradientUnits="userSpaceOnUse">
      <stop offset="0%" stop-color="#31dbff"/>
      <stop offset="100%" stop-color="#1589de"/>
    </linearGradient>
    <linearGradient id="cap" x1="204" y1="78" x2="314" y2="242" gradientUnits="userSpaceOnUse">
      <stop offset="0%" stop-color="#dcf9ff"/>
      <stop offset="100%" stop-color="#9fd9ec"/>
    </linearGradient>
  </defs>

  <polygon points="250,36 388,190 301,392 250,476 199,392 112,190" fill="#0a2b70"/>
  <polygon points="250,62 128,192 182,388 250,464 250,248" fill="url(#shellLeft)"/>
  <polygon points="250,62 372,192 318,388 250,464 250,248" fill="url(#shellRight)"/>
  <polygon points="250,120 336,196 250,446 164,196" fill="url(#core)"/>
  <polygon points="250,62 336,196 250,252 164,196" fill="url(#cap)"/>
  <polygon points="213,116 236,84 228,170" fill="#ffffff" fill-opacity="0.78"/>

  <polygon
    points="250,36 388,190 301,392 250,476 199,392 112,190"
    fill="none"
    stroke="#08235a"
    stroke-opacity="0.45"
    stroke-width="2"
  />
</svg>
